<?xml version="1.0" encoding="utf-8"?>
<!-- Generator: Adobe Illustrator 16.0.0, SVG Export Plug-In . SVG Version: 6.00 Build 0)  -->
<!DOCTYPE svg PUBLIC "-//W3C//DTD SVG 1.1//EN" "http://www.w3.org/Graphics/SVG/1.1/DTD/svg11.dtd">
<svg version="1.1" xmlns="http://www.w3.org/2000/svg" xmlns:xlink="http://www.w3.org/1999/xlink" x="0px" y="0px"
	 width="308.334px" height="243.328px" viewBox="0 0 308.334 243.328" enable-background="new 0 0 308.334 243.328"
	 xml:space="preserve">
<g id="Calque_2">
</g>
<g id="Calque_1">
	<g>
		<path d="M194.31,135.364c0,1.863-0.061,3.504-0.183,4.921c-0.121,1.418-0.29,2.667-0.506,3.747
			c-0.648,2.97-1.918,5.522-3.808,7.656c-3.564,4.104-8.466,6.157-14.704,6.157c-5.266,0-9.6-1.417-13.003-4.253
			c-3.511-2.917-5.536-6.954-6.075-12.111h9.154c0.351,1.944,0.932,3.443,1.741,4.496c1.891,2.457,4.645,3.686,8.264,3.686
			c6.67,0,10.005-4.091,10.005-12.273v-5.509c-3.619,3.7-7.791,5.549-12.517,5.549c-5.374,0-9.775-1.944-13.205-5.833
			c-3.457-3.942-5.185-8.871-5.185-14.785c0-5.752,1.606-10.64,4.82-14.664c3.456-4.267,8.021-6.4,13.691-6.4
			c4.968,0,9.1,1.85,12.395,5.549v-4.456h9.114V135.364z M185.56,116.65c0-3.834-1.026-6.899-3.078-9.195
			c-2.08-2.349-4.739-3.524-7.979-3.524c-3.457,0-6.185,1.283-8.183,3.848c-1.81,2.295-2.714,5.266-2.714,8.912
			c0,3.592,0.904,6.535,2.714,8.83c1.971,2.512,4.699,3.767,8.183,3.767s6.237-1.269,8.263-3.808
			C184.628,123.185,185.56,120.242,185.56,116.65z"/>
	</g>
	<g>
		<g>
			<path d="M90.084,157.372V94.83h9.397c4.185,0,7.52,0.324,10.005,0.972c2.511,0.648,4.631,1.742,6.359,3.281
				c1.755,1.593,3.146,3.578,4.172,5.954c1.054,2.404,1.58,4.834,1.58,7.292c0,4.483-1.715,8.277-5.145,11.382
				c3.321,1.134,5.94,3.119,7.858,5.954c1.944,2.809,2.916,6.076,2.916,9.803c0,4.888-1.729,9.02-5.185,12.395
				c-2.08,2.08-4.415,3.524-7.008,4.334c-2.835,0.784-6.387,1.175-10.653,1.175H90.084z M99.521,121.686h2.957
				c3.51,0,6.082-0.776,7.717-2.329c1.633-1.553,2.45-3.841,2.45-6.866c0-2.943-0.837-5.178-2.512-6.704
				c-1.674-1.525-4.104-2.289-7.291-2.289h-3.321V121.686z M99.521,148.5h5.833c4.267,0,7.398-0.836,9.397-2.511
				c2.106-1.809,3.159-4.104,3.159-6.886c0-2.7-1.013-4.968-3.038-6.805c-1.971-1.809-5.495-2.714-10.571-2.714h-4.78V148.5z"/>
		</g>
	</g>
	<g>
		<path d="M209.814,156.27V94.01h-7.244v-7.838h15.714v77.973H202.57v-7.875H209.814z"/>
	</g>
	<g>
		<path d="M142.419,94.01v62.26h7.207v7.875h-15.714V86.172h15.714v7.838H142.419z"/>
	</g>
</g>
</svg>
