<svg width="308.334" height="243.328" xmlns="http://www.w3.org/2000/svg" xml:space="preserve" enable-background="new 0 0 308.334 243.328" version="1.1">

 <g>
  <title>Layer 1</title>
  <g id="Calque_2"/>
  <g id="Calque_1">
   <g id="svg_1">
    <path id="svg_2" d="m242.0723,141.29684c0,4.05733 -0.13285,7.63118 -0.39855,10.71719c-0.26352,3.08819 -0.63158,5.80832 -1.10199,8.16039c-1.41124,6.46821 -4.17711,12.02607 -8.29324,16.6736c-7.76185,8.93788 -18.43765,13.409 -32.02306,13.409c-11.46854,0 -20.90733,-3.08601 -28.31855,-9.26238c-7.64642,-6.35278 -12.05656,-15.14475 -13.23042,-26.37591l19.93601,0c0.76442,4.23373 2.02975,7.49833 3.79163,9.7916c4.11831,5.35097 10.1161,8.02754 17.99773,8.02754c14.52624,0 21.78936,-8.90957 21.78936,-26.72872l0,-11.99776c-7.88163,8.05803 -16.96761,12.08487 -27.26011,12.08487c-11.70375,0 -21.28846,-4.23373 -28.75847,-12.70338c-7.52882,-8.58507 -11.29214,-19.31968 -11.29214,-32.19947c0,-12.52698 3.49762,-23.17229 10.49722,-31.93595c7.52664,-9.29287 17.46851,-13.93822 29.8169,-13.93822c10.81954,0 19.81841,4.02902 26.99441,12.08487l0,-9.70449l19.8489,0l0,83.8972l0.00436,0zm-19.05616,-40.75623c0,-8.34987 -2.23447,-15.02497 -6.70341,-20.0253c-4.52992,-5.11576 -10.32082,-7.67473 -17.37704,-7.67473c-7.52882,0 -13.46998,2.79418 -17.82132,8.38036c-3.9419,4.99816 -5.91068,11.46854 -5.91068,19.40897c0,7.82283 1.96877,14.23223 5.91068,19.23039c4.29254,5.47075 10.2337,8.20395 17.82132,8.20395s13.58323,-2.76369 17.99555,-8.29324c4.05515,-4.99816 6.0849,-11.40756 6.0849,-19.23039z"/>
   </g>
   <g id="svg_3">
    <g id="svg_4">
     <path id="svg_5" d="m15.084,189.2269l0,-136.20691l20.46523,0c9.11429,0 16.37741,0.70562 21.78936,2.11687c5.46857,1.41124 10.08561,3.79381 13.84893,7.14552c3.82212,3.46931 6.85151,7.79234 9.08598,12.9669c2.29545,5.23554 3.441,10.52771 3.441,15.88086c0,9.76329 -3.73501,18.02604 -11.20502,24.78826c7.23263,2.46968 12.93641,6.79271 17.11352,12.9669c4.23373,6.11757 6.3506,13.2326 6.3506,21.34944c0,10.64532 -3.7655,19.64418 -11.29214,26.99441c-4.52992,4.52992 -9.61519,7.67473 -15.26235,9.43879c-6.1742,1.70743 -13.90991,2.55897 -23.20061,2.55897l-31.1345,0zm20.55234,-77.71865l6.43989,0c7.64424,0 13.24567,-1.69001 16.80645,-5.07221c3.55642,-3.3822 5.33573,-8.36511 5.33573,-14.9531c0,-6.4094 -1.82286,-11.27689 -5.47075,-14.60029c-3.64572,-3.32122 -8.93788,-4.98509 -15.87868,-4.98509l-7.23263,0l0,39.61068zm0,58.39679l12.70338,0c9.29287,0 16.11171,-1.82068 20.46523,-5.46857c4.58655,-3.93973 6.87982,-8.93788 6.87982,-14.99666c0,-5.88019 -2.20616,-10.81954 -6.6163,-14.82025c-4.29254,-3.93973 -11.96727,-5.91068 -23.02202,-5.91068l-10.41011,0l0,41.19616z"/>
    </g>
   </g>
   <g id="svg_6">
    <path id="svg_7" d="m275.83764,186.82691l0,-135.59276l-15.77632,0l0,-17.06997l34.22269,0l0,169.81327l-34.22269,0l0,-17.15055l15.77632,0z"/>
   </g>
   <g id="svg_8">
    <path id="svg_9" d="m129.06163,51.23415l0,135.59276l15.69574,0l0,17.15055l-34.22269,0l0,-169.81327l34.22269,0l0,17.06997l-15.69574,0z"/>
   </g>
  </g>
 </g>
</svg>